<?xml version="1.0" encoding="utf-8"?>
<!-- Generator: Adobe Illustrator 17.1.0, SVG Export Plug-In . SVG Version: 6.00 Build 0)  -->
<!DOCTYPE svg PUBLIC "-//W3C//DTD SVG 1.1//EN" "http://www.w3.org/Graphics/SVG/1.1/DTD/svg11.dtd">
<svg version="1.1" id="Layer_1" xmlns="http://www.w3.org/2000/svg" xmlns:xlink="http://www.w3.org/1999/xlink" x="0px" y="0px"
	 viewBox="0 0 24.7 28.2" enable-background="new 0 0 24.7 28.2" xml:space="preserve">
<g>
	<g>
		<g>
			<g>
				<g>
					<path fill="#ffffff" stroke="#ffffff" stroke-width="0.3" stroke-miterlimit="10" d="M20.3,27.4H4.8c-1.1,0-2.2-0.5-2.9-1.3
						c-0.8-0.8-1.1-1.9-1.1-3L1.9,8.4C2.1,7.1,3,6.2,4.3,6.2h16.3c1.3,0,2.2,1,2.4,2.2l1.1,14.7c0.2,1.1-0.3,2.2-1.1,3
						C22.5,26.9,21.4,27.4,20.3,27.4z M4.4,7.7C3.9,7.7,3.6,8,3.6,8.5L2.5,23.2c0,0.6,0.2,1.3,0.6,1.8c0.5,0.5,1.1,0.8,1.8,0.8h15.5
						c0.6,0,1.3-0.3,1.8-0.8s0.6-1.1,0.6-1.8L21.7,8.5c0-0.5-0.3-0.8-0.8-0.8H4.4z"/>
				</g>
			</g>
			<g>
				<path fill="#ffffff" stroke="#ffffff" stroke-width="0.3" stroke-miterlimit="10" d="M15.6,10.4c-0.5,0-0.8-0.3-0.8-0.8v-5
					c0-1.3-1-2.2-2.2-2.2s-2.2,1-2.2,2.2v5c0,0.5-0.3,0.8-0.8,0.8s-0.8-0.3-0.8-0.8v-5c0-2.1,1.8-3.8,3.8-3.8c2.1,0,3.8,1.8,3.8,3.8
					v5C16.4,10.1,15.9,10.4,15.6,10.4z"/>
			</g>
		</g>
	</g>
</g>
</svg>
