<?xml version="1.0" encoding="utf-8"?>
<!-- Generator: Adobe Illustrator 17.1.0, SVG Export Plug-In . SVG Version: 6.00 Build 0)  -->
<!DOCTYPE svg PUBLIC "-//W3C//DTD SVG 1.1//EN" "http://www.w3.org/Graphics/SVG/1.1/DTD/svg11.dtd">
<svg version="1.1" id="Layer_1" xmlns="http://www.w3.org/2000/svg" xmlns:xlink="http://www.w3.org/1999/xlink" x="0px" y="0px"
	 viewBox="0 0 841.9 98.6" enable-background="new 0 0 841.9 98.6" xml:space="preserve">
<g>
	<path fill-rule="evenodd" clip-rule="evenodd" d="M151,40.7l8-22.6l8.9,22.6H151z M182.5,58L163.7,7c-1.8,2.1-3.8,3.7-6.3,4.7
		c0.2,0.4,0.3,0.9,0.3,1.4c0,0.6-0.1,1.2-0.3,1.9c-0.2,0.7-0.5,1.6-0.9,2.7L151.4,32l-9.7,25.6c-1.5,3.7-2.7,6.1-3.7,7.1
		c-1.3,1.3-3.7,2.5-7.4,3.5l0,1.3h23.4v-1.3c-4.2-0.6-6.8-1.3-7.7-1.9c-1.4-0.9-2-2.3-2-4c0-1.8,0.7-4.7,2-8.8
		c0.8-2.2,1.8-5.1,3.2-8.8l19.5,0c0.5,1.5,1.5,4,2.8,7.4c1.8,5,2.7,8.5,2.7,10.5c0,1.7-0.7,3.1-2.2,4c-0.9,0.6-2.4,1.1-4.4,1.6v1.3
		h25.2v-1.3c-3.3-0.6-5.6-1.7-7-3.2C185,63.8,183.8,61.5,182.5,58z M129.7,90.2c-1.5-2.6-2.1-8.9-3.7-18.4l-9.2-55.1
		c-0.7-4.4,0.9-7.8,2.8-9.9c1.9-2.1,4.8-3.6,8.8-4.5v-2h-23.3L105,2.4c0.9,0.6,1.3,1.9,1.3,3.6c0,1.5-0.3,3.2-0.8,5.3
		c-0.6,2.1-1.2,4.6-2.5,7.3L80.4,65.2L56.6,15c-0.7-1.5-1.1-2.9-1.4-4c-0.6-2.3-0.9-4.1-0.9-5.6c0-1.6,0.3-2.8,0.9-3.6l-0.1-1.5
		H32.3v2.2c4.1,0.4,7.2,1.4,9.4,3.2C44.4,7.7,46,11,45.2,15L33,77.2C31.8,83.6,31,88,29.7,90c-1.8,3-5.1,5-9.9,5.9v2h32.9v-2
		c-6.4-1.2-10.5-3.2-12.5-6.1c-1.1-1.6-2.3-4.3-1.7-8l10.2-62.5l28.6,59.7h1.3l29.6-61.5l9.8,63.6c0.8,5.3-1.3,9.1-3.8,11.2
		c-1.7,1.4-5.2,2.6-10.5,3.5v2h37.6v-2C135.1,94.7,131.2,92.8,129.7,90.2z M249.1,32.5c-4.7-3.1-6.9-6.9-6.9-11.1
		c0-2.8,1-5.2,2.9-6.9c3.8-3.5,13.7-3.7,17.5-0.1c2.1,2,3.7,5.7,4.8,11.3h1.3l0.7-13.1c-2.1-1.2-4.2-2-6.2-2.6
		c-6.6-1.8-17-0.7-22.5,3.7c-4,3.3-6.1,7.3-6.1,12.1c0,4.9,2.1,9.3,6.8,12.5c5.7,3.9,22.6,6.9,22.7,17.8c0.1,7.7-6.4,13.9-24.4,13.7
		c-6.3-0.1-11.4-0.9-15.5-2.3c5.4-2.6,9.7-7.2,9.8-14.3c0.3-12.5-15-15.7-22.8-20.8c-4.7-3.1-6.9-6.9-6.9-11.1c0-2.8,1-5.2,2.9-6.9
		c3.8-3.5,13-3.7,16.9-0.1c2.1,2,3.7,5.7,4.8,11.3h1.4l0.7-13.1c-2.1-1.2-4.2-2-6.1-2.6c-6.6-1.8-16.4-0.7-21.8,3.7
		C199,17,197,21,197,25.8c0,4.9,2.1,9.3,6.8,12.5c6.7,4.5,22.6,7.2,22.1,18.7c-0.2,4.5-2.4,7.3-5.4,8.9c-6.5-3.2-9.6-8.2-10.9-13
		h-1.5l1.7,10.4c1.7,1.1,3.7,2.6,6.5,4.1c-1.5,0.3-3,0.4-4.4,0.4c-4.4,0-8.2-1.7-11.4-5.2c-2.7-3-4.7-6.8-5.9-11.4l-1.5,0l2.5,14.8
		c4.5,3,9.5,4.4,15.1,4.4c3,0,6.2-0.4,9.4-1.3c4.4,1.8,10.3,3.2,18.5,3.3c15.9,0.1,33.6-3.2,33.4-19
		C271.7,39.4,256.3,37.2,249.1,32.5z M276.3,11.6c4.8,0.7,7.9,1.9,9.1,3.7c1,1.4,1.5,4.5,1.5,9.3v30.6c0,4.9-0.5,8-1.5,9.4
		c-1.2,1.7-4.2,2.9-9.1,3.6v1.3H305v-1.3c-4.9-0.6-7.9-1.8-9.1-3.7c-1-1.4-1.5-4.5-1.5-9.3V24.6c0-4.9,0.5-8,1.5-9.4
		c1.2-1.7,4.2-2.9,9.1-3.6l0-1.3h-28.7V11.6z M388.4,64.5c-1.1-1.7-0.8-5.4-1.6-11.8L382.7,21c-0.4-2.9,0.7-5.1,2.1-6.4
		c1.4-1.4,3.5-2.3,6.4-2.9v-1.3h-18.8l-0.2,1.4c0.6,0.4,0.9,1.2,0.9,2.4c0,0.9-0.2,2-0.6,3.4c-0.4,1.3-1,2.9-1.8,4.7l-15.5,34.6
		l-16.2-37c-0.5-1-0.8-1.8-1-2.6c-0.5-1.4-0.7-2.6-0.7-3.6c0-1,0.2-1.8,0.7-2.3l-0.1-1h-18.5v1.4c3,0.2,5.2,0.9,6.8,2.1
		c1.9,1.4,3.1,3.4,2.6,6l-7.6,36.3c-0.9,4.2-1.5,6.9-2.4,8.3c-1.3,2-3.7,3.2-7.2,3.8v1.3h23.9v-1.3c-4.6-0.8-7.7-2-9.1-3.9
		c-0.8-1.1-1.6-2.8-1.2-5.2l6.1-36.5l20.3,46.8h0.9l22-48.8l4.5,38c0.4,3.5-0.9,5.9-2.7,7.2c-1.2,0.9-3.8,1.7-7.6,2.3l0,1.3h28.1
		v-1.3C392.3,67.4,389.4,66.2,388.4,64.5z M437.3,68.8c-20.8,0.6-30-17.3-30-31.5c0-13.2,8.8-28.1,27.6-28.6
		c20-0.6,29.7,17.1,29.7,30.8C464.6,52.5,456.2,68.3,437.3,68.8z M435.8,6.5c-23.6,0.7-39.3,12.3-39.3,31.6
		c0,19.5,15.5,33.7,39.4,33c23.9-0.7,38.8-12.9,38.8-32.4C474.7,18.9,460,5.8,435.8,6.5z M531.2,44.4L531,3.8c12,0,29.4,1,29.5,17.3
		C560.5,36.8,553.3,42.2,531.2,44.4z M563.9,64c-4.8-8.3-4.3-13.2-12.2-19.2c8.8-2.9,19.7-10,18.5-26.6C569.1,1.5,548.4-0.2,535.8,0
		l-23.1,0.5v1.8c6.4,0.6,7.5,2.3,9,5.3c1.3,2.5,1.9,9.1,1.9,19.8v41.9c0,7.6-0.7,12.4-2,14.6c-1.6,2.7-3.4,5.1-10.1,6.1v2L543,92v-2
		c-7.7-1.3-7.9-3-9.6-5.4c-1.4-2-2.1-6.8-2.1-14.6V48.2c2.7,0.3,5.6,0.6,8.9,1c3.3,0.4,7.9,2.1,10.1,7.5
		c9.1,21.4,25.6,41.9,47.5,41.9l0.4-2c-6.1-1.5-14.3-7.8-19.5-12.9C574.5,79.5,568.3,71.5,563.9,64z M618.2,64
		c-2.8,2.3-6.9,3.4-12.4,3.4c-5.5,0-9.2-1.1-11-3.3c-1.2-1.4-1.8-3.7-1.8-6.9v-2.1V40.9h8.9c3.9,0,6.7,0.3,8.1,1
		c2.2,1,3.6,3.3,4.1,6.7h1.3V29.2h-1.3c-0.5,3.4-1.8,5.7-4.1,6.9c-1.5,0.8-4.2,1.1-8.1,1.1l-8.9,0V12.4h8.3c5.7,0,9.7,0.5,11.9,1.5
		c3.5,1.6,5.3,4.9,5.3,9.8h1.3l1-13.4h-45.9v1.3c4.8,0.7,7.9,1.9,9.1,3.7c1,1.4,1.4,4.5,1.4,9.3v30.6c0,4.9-0.5,8-1.4,9.4
		c-1.2,1.7-4.2,2.9-9.1,3.6v1.3h47.6c1-3.1,1.7-5.9,2.2-8.5c0.5-2.6,0.7-5.5,0.7-8.8l-1.3,0C622.9,57.8,621,61.7,618.2,64z
		 M674,11.6c4.9,0.9,8.1,2.2,9.6,3.8c1.6,1.6,2.4,4.5,2.4,8.7l0.4,31.8l-42.3-45.5H630v1.3c5.3,1.2,8.7,2.8,10.3,5
		c1.3,1.8,2,4.9,2,9.6v13.1c0,8.9-0.2,14.8-0.5,17.6c-0.9,7-4.4,10.8-10.6,11.4v1.3h25.6v-1.3c-6.9-1.4-10.7-5-11.5-10.7
		c-0.3-2.1-0.4-8-0.4-17.8l0-16c2.5,2.7,7.3,7.9,14.6,15.7c5.5,5.9,10.4,11.2,14.6,15.8c5.4,5.9,10.1,11.3,14.1,16.1l1.1-0.3
		c-0.1-4.1-0.1-8.6-0.2-13.4c-0.1-4.8-0.1-11-0.1-18.6c0-4.6,0-8.2,0.1-10.7c0.1-2.5,0.3-5,0.6-7.7c0.3-2.6,0.9-4.6,1.8-5.8
		c1.1-1.7,3.1-2.7,5.8-3.1v-1.3H674V11.6z M744.1,11.6c4.9,0.9,8,2.2,9.6,3.8c1.6,1.6,2.4,4.5,2.4,8.7l0.4,31.8l-42.3-45.5h-14.1
		v1.3c5.2,1.2,8.7,2.8,10.3,5c1.3,1.8,2,4.9,2,9.6v13.1c0,8.9-0.2,14.8-0.5,17.6c-0.8,7-4.4,10.8-10.6,11.4v1.3h25.6v-1.3
		c-6.8-1.4-10.7-5-11.5-10.7c-0.3-2.1-0.4-8-0.4-17.8v-16c2.5,2.7,7.4,7.9,14.6,15.7c5.5,5.9,10.4,11.2,14.6,15.8
		c5.4,5.9,10.1,11.3,14.1,16.1l1.1-0.3c-0.1-4.1-0.1-8.6-0.2-13.4c-0.1-4.8-0.1-11-0.1-18.6c0-4.6,0-8.2,0.1-10.7
		c0.1-2.5,0.3-5,0.6-7.7c0.3-2.6,0.9-4.6,1.8-5.8c1.1-1.7,3.1-2.7,5.8-3.1v-1.3h-23.4V11.6z M820.8,52.3c-1.1,5.5-3,9.4-5.8,11.7
		c-2.8,2.3-6.9,3.4-12.4,3.4c-5.5,0-9.1-1.1-11-3.3c-1.2-1.4-1.8-3.7-1.8-6.9v-2.1V40.9h8.9c3.9,0,6.7,0.3,8.1,1
		c2.2,1,3.6,3.3,4.1,6.7h1.3V29.2h-1.3c-0.5,3.4-1.8,5.7-4.1,6.9c-1.6,0.8-4.3,1.1-8.1,1.1l-8.9,0V12.4h8.3c5.7,0,9.7,0.5,11.9,1.5
		c3.5,1.6,5.3,4.9,5.3,9.8h1.3l1-13.4h-45.9v1.3c4.9,0.7,7.9,1.9,9.2,3.7c1,1.4,1.4,4.5,1.4,9.3v30.6c0,4.9-0.5,8-1.4,9.4
		c-1.2,1.7-4.3,2.9-9.2,3.6v1.3h47.6c1-3.1,1.8-5.9,2.2-8.5c0.4-2.6,0.7-5.5,0.7-8.8L820.8,52.3z"/>
</g>
</svg>
