<?xml version="1.0" encoding="utf-8"?>
<!-- Generator: Adobe Illustrator 17.1.0, SVG Export Plug-In . SVG Version: 6.00 Build 0)  -->
<!DOCTYPE svg PUBLIC "-//W3C//DTD SVG 1.1//EN" "http://www.w3.org/Graphics/SVG/1.1/DTD/svg11.dtd">
<svg version="1.1" id="Layer_1" xmlns="http://www.w3.org/2000/svg" xmlns:xlink="http://www.w3.org/1999/xlink" x="0px" y="0px"
	 viewBox="0 0 24 23.5" enable-background="new 0 0 24 23.5" xml:space="preserve">
<g>
	<g>
		<g>
			<g>
				<path fill="#444444" stroke="#444444" stroke-width="0.3" stroke-miterlimit="10" d="M9.5,18.1c-4.8,0-8.8-4-8.8-8.8
					s4-8.8,8.8-8.8s8.8,4,8.8,8.8S14.3,18.1,9.5,18.1z M9.5,2.1c-4,0-7.2,3.2-7.2,7.2s3.2,7.2,7.2,7.2s7.2-3.2,7.2-7.2
					S13.5,2.1,9.5,2.1z"/>
			</g>
			<g>
				<path fill="#444444" stroke="#444444" stroke-width="0.3" stroke-miterlimit="10" d="M15.9,14.6l7,7c0.3,0.3,0.3,0.8,0,1.1
					c-0.2,0.2-0.5,0.2-0.6,0.2c-0.2,0-0.5,0-0.6-0.2l-7-7L15.9,14.6z"/>
			</g>
		</g>
	</g>
</g>
</svg>
